<svg width="22" height="26" viewBox="0 0 22 26" fill="none" xmlns="http://www.w3.org/2000/svg">
<path d="M20.6654 3.92971H17.0166V0.836109C17.0166 0.614359 16.932 0.401692 16.7815 0.244891C16.6309 0.0880898 16.4266 0 16.2137 0H5.25466C5.0417 0 4.83746 0.0880898 4.68688 0.244891C4.53629 0.401692 4.45169 0.614359 4.45169 0.836109V3.92971H0.802975C0.590012 3.92971 0.385773 4.0178 0.235186 4.17461C0.0845989 4.33141 0 4.54407 0 4.76582C0 4.98757 0.0845989 5.20024 0.235186 5.35704C0.385773 5.51384 0.590012 5.60193 0.802975 5.60193H2.60806L3.57163 25.1334C3.58154 25.3473 3.67015 25.5489 3.81908 25.6965C3.968 25.8441 4.1658 25.9263 4.37139 25.9261H17.0937C17.2993 25.9263 17.4971 25.8441 17.646 25.6965C17.795 25.5489 17.8836 25.3473 17.8935 25.1334L18.8571 5.60193H20.6621C20.8751 5.60193 21.0793 5.51384 21.2299 5.35704C21.3805 5.20024 21.4651 4.98757 21.4651 4.76582C21.4651 4.54407 21.3805 4.33141 21.2299 4.17461C21.0793 4.0178 20.8751 3.92971 20.6621 3.92971H20.6654ZM9.61 21.1536C9.61 21.3753 9.5254 21.588 9.37481 21.7448C9.22423 21.9016 9.01999 21.9897 8.80702 21.9897C8.59406 21.9897 8.38982 21.9016 8.23924 21.7448C8.08865 21.588 8.00405 21.3753 8.00405 21.1536V8.77915C8.00405 8.5574 8.08865 8.34473 8.23924 8.18793C8.38982 8.03113 8.59406 7.94304 8.80702 7.94304C9.01999 7.94304 9.22423 8.03113 9.37481 8.18793C9.5254 8.34473 9.61 8.5574 9.61 8.77915V21.1536ZM13.4643 21.1536C13.4643 21.3753 13.3797 21.588 13.2291 21.7448C13.0785 21.9016 12.8743 21.9897 12.6613 21.9897C12.4483 21.9897 12.2441 21.9016 12.0935 21.7448C11.9429 21.588 11.8583 21.3753 11.8583 21.1536V8.77915C11.8583 8.5574 11.9429 8.34473 12.0935 8.18793C12.2441 8.03113 12.4483 7.94304 12.6613 7.94304C12.8743 7.94304 13.0785 8.03113 13.2291 8.18793C13.3797 8.34473 13.4643 8.5574 13.4643 8.77915V21.1536Z" fill="white"/>
</svg>
